<svg xmlns="http://www.w3.org/2000/svg" xmlns:xlink="http://www.w3.org/1999/xlink" viewBox="0 0 390.1 76.2"><defs><path id="a" d="M0 0h390.1v76.2H0z"/></defs><clipPath id="b"><use xlink:href="#a" overflow="visible"/></clipPath><path d="M168.1 54.7h4.7c1 0 1.9.1 2.9.9.8.6 1.4 1.7 1.4 3.1 0 1.8-1.4 3.9-4.1 3.9h-3v5.1h-2v-13zm1.9 6h2.9c1.5 0 2.2-1.1 2.2-2.1 0-.9-.3-1.4-.8-1.7-.4-.3-.8-.4-1.4-.4H170v4.2zm16.5 4.1h-4.9l-1 2.9h-2.1l4.7-13h1.6l4.7 13h-2.1l-.9-2.9zm-.6-1.8l-1.9-5.7-1.9 5.7h3.8zm7.3-8.3h5.1c1.1 0 2 .3 2.6.9.7.6 1.3 1.6 1.3 2.8 0 1.7-.9 3-2.5 3.6l3 5.8h-2.3l-2.7-5.5h-2.5v5.5h-2V54.7zm2 5.7h3c1.5 0 2.2-1 2.2-2.1 0-.7-.3-1.2-.7-1.5-.4-.3-.8-.4-1.4-.4h-3.1v4zm11.4-5.7h2v13h-2zm7.2 9.8c1 .8 2.3 1.3 3.7 1.3 1.6 0 2.6-.7 2.6-1.8 0-.9-.5-1.6-1.7-1.8-.6-.1-1-.1-1.7-.2-2.2-.3-3.4-1.8-3.4-3.6 0-2.2 1.6-3.8 4.2-3.8 1.6 0 3 .6 4.2 1.3l-1.1 1.6c-.9-.6-2.1-1-3.2-1-1.2 0-2.2.6-2.2 1.9 0 .7.5 1.5 1.8 1.7.3.1.8.1 1.5.2 2.4.3 3.6 2 3.6 3.7 0 2.4-1.8 3.8-4.6 3.8-1.9 0-3.6-.6-5-1.8l1.3-1.5zM26 35.7H12.4l-2.9 7H5.1l12.8-30.8h5.3l12.3 30.8h-6.6l-2.9-7zm-12.1-3.8h10.8l-5.3-13.2h-.2l-5.3 13.2zm29.3 10.8h-4V11.9h5.5l16.7 22.2h.3V11.9h3.9v30.8h-5.5L43.4 20.5h-.2zm54.3-3.1s-3.7 4-10.1 4c-9.5 0-16.7-7.3-16.7-16.3S78 11 87.4 11c8.6 0 12.8 6.4 12.8 6.4l-2 2s-3.7-4.8-9.9-4.8c-5.9 0-11 5.1-11 12.8 0 7.7 5.1 12.8 11 12.8 4 0 6.6-2.4 6.6-2.4v-7.9h-7.3V26H101v16.7h-2.2l-1.1-3.1h-.2zm15.8-.6h17.4v3.7h-23.5V11.9h22.9l-.7 3.8h-16.1v9.2h11.9l-.6 3.7h-11.3zm28 0h16.2l-.6 3.7h-21.8V11.9h6.2zm31 3.7h-6.2V32.6l-11.4-20.7h7l8.6 15.9h.2l8.6-15.9h4.4l-11.2 20.7zM196.7 11c7.7 0 11.7 5.9 11.7 5.9l-2 1.8s-3.7-4.2-8.8-4.2c-3.5 0-5.7 2.2-5.7 4.8 0 5.7 16.9 4.6 16.9 14.7 0 4.8-4.6 9.5-12.5 9.5-9 0-13-6.8-13-6.8l2-2s3.5 5.3 10.1 5.3c4.4 0 6.8-2.4 6.8-5.9 0-5.5-16.9-4.6-16.9-14.7 0-4.2 4.1-8.4 11.4-8.4m53.7 28.6s-3.7 4-10.1 4c-9.5 0-16.7-7.3-16.7-16.3S230.9 11 240.3 11c8.6 0 12.8 6.4 12.8 6.4l-2 2s-3.7-4.8-9.9-4.8c-5.9 0-11 5.1-11 12.8 0 7.7 5.1 12.8 11 12.8 4 0 6.6-2.4 6.6-2.4v-7.9h-7.3V26h13.4v16.7h-2.2l-1.1-3.1h-.2zm15.8-8.1v11.2H260V11.9h11.2c8.8 0 13.2 4.4 13.2 9.9 0 6.4-6.2 7.9-6.2 7.9v.2l8.8 12.8h-6.8l-7.6-11.2h-6.4zm5-3.5c4 0 6.6-2.6 6.6-6.2 0-3.5-2.6-6.2-6.6-6.2h-5.1V28h5.1zM306 11c9.5 0 16.7 7.3 16.7 16.3s-7.3 16.3-16.7 16.3c-9.5 0-16.7-7.3-16.7-16.3S296.5 11 306 11m0 3.6c-5.3 0-10.1 4.8-10.1 12.8s4.8 12.8 10.1 12.8 10.1-4.8 10.1-12.8-4.8-12.8-10.1-12.8m43.3 16.7V11.9h4v19.4c0 7-5.3 12.3-13 12.3s-13-5.3-13-12.3V11.9h6.2v19.4c0 5.3 3.5 8.8 7.9 8.8s7.9-3.6 7.9-8.8M372 11.9c8.6 0 13 4.4 13 10.1 0 5.8-4.4 10.1-13 10.1h-6v10.6h-6.2V11.9H372zm0 3.8h-6v12.8h5.9c3.7 0 6.4-2.6 6.4-6.4.1-3.8-2.6-6.4-6.3-6.4" clip-path="url(#b)"/></svg>