<?xml version="1.0" encoding="utf-8"?>
<!-- Generator: Adobe Illustrator 23.0.6, SVG Export Plug-In . SVG Version: 6.00 Build 0)  -->
<svg version="1.1" id="Warstwa_1" xmlns="http://www.w3.org/2000/svg" xmlns:xlink="http://www.w3.org/1999/xlink" x="0px" y="0px"
	 viewBox="0 0 390.1 76.2" style="enable-background:new 0 0 390.1 76.2;" xml:space="preserve">
<style type="text/css">
	.st0{clip-path:url(#SVGID_2_);}
</style>
<g>
	<defs>
		<rect id="SVGID_1_" y="0" width="390.1" height="76.2"/>
	</defs>
	<clipPath id="SVGID_2_">
		<use xlink:href="#SVGID_1_"  style="overflow:visible;"/>
	</clipPath>
	<path class="st0" d="M168.1,54.7h4.7c1,0,1.9,0.1,2.9,0.9c0.8,0.6,1.4,1.7,1.4,3.1c0,1.8-1.4,3.9-4.1,3.9h-3v5.1h-2V54.7z
		 M170,60.7h2.9c1.5,0,2.2-1.1,2.2-2.1c0-0.9-0.3-1.4-0.8-1.7c-0.4-0.3-0.8-0.4-1.4-0.4H170V60.7z"/>
	<path class="st0" d="M186.5,64.8h-4.9l-1,2.9h-2.1l4.7-13h1.6l4.7,13h-2.1L186.5,64.8z M185.9,63l-1.9-5.7h0l-1.9,5.7H185.9z"/>
	<path class="st0" d="M193.2,54.7h5.1c1.1,0,2,0.3,2.6,0.9c0.7,0.6,1.3,1.6,1.3,2.8c0,1.7-0.9,3-2.5,3.6l3,5.8h-2.3l-2.7-5.5h-2.5
		v5.5h-2V54.7z M195.2,60.4h3c1.5,0,2.2-1,2.2-2.1c0-0.7-0.3-1.2-0.7-1.5c-0.4-0.3-0.8-0.4-1.4-0.4h-3.1V60.4z"/>
	<rect x="206.6" y="54.7" class="st0" width="2" height="13"/>
	<path class="st0" d="M213.8,64.5c1,0.8,2.3,1.3,3.7,1.3c1.6,0,2.6-0.7,2.6-1.8c0-0.9-0.5-1.6-1.7-1.8c-0.6-0.1-1-0.1-1.7-0.2
		c-2.2-0.3-3.4-1.8-3.4-3.6c0-2.2,1.6-3.8,4.2-3.8c1.6,0,3,0.6,4.2,1.3l-1.1,1.6c-0.9-0.6-2.1-1-3.2-1c-1.2,0-2.2,0.6-2.2,1.9
		c0,0.7,0.5,1.5,1.8,1.7c0.3,0.1,0.8,0.1,1.5,0.2c2.4,0.3,3.6,2,3.6,3.7c0,2.4-1.8,3.8-4.6,3.8c-1.9,0-3.6-0.6-5-1.8L213.8,64.5z"/>
	<path class="st0" d="M26,35.7H12.4l-2.9,7H5.1l12.8-30.8h5.3l12.3,30.8h-6.6L26,35.7z M13.9,31.9h10.8l-5.3-13.2h-0.2L13.9,31.9z"
		/>
	<polygon class="st0" points="43.2,42.7 39.2,42.7 39.2,11.9 44.7,11.9 61.4,34.1 61.7,34.1 61.7,11.9 65.6,11.9 65.6,42.7 
		60.1,42.7 43.4,20.5 43.2,20.5 	"/>
	<path class="st0" d="M97.5,39.6c0,0-3.7,4-10.1,4c-9.5,0-16.7-7.3-16.7-16.3c0-9,7.3-16.3,16.7-16.3c8.6,0,12.8,6.4,12.8,6.4l-2,2
		c0,0-3.7-4.8-9.9-4.8c-5.9,0-11,5.1-11,12.8c0,7.7,5.1,12.8,11,12.8c4,0,6.6-2.4,6.6-2.4v-7.9h-7.3V26H101v16.7h-2.2l-1.1-3.1H97.5
		z"/>
	<polygon class="st0" points="113.3,39 130.7,39 130.7,42.7 107.2,42.7 107.2,11.9 130.1,11.9 129.4,15.7 113.3,15.7 113.3,24.9 
		125.2,24.9 124.6,28.6 113.3,28.6 	"/>
	<polygon class="st0" points="141.3,39 157.5,39 156.9,42.7 135.1,42.7 135.1,11.9 141.3,11.9 	"/>
	<polygon class="st0" points="172.3,42.7 166.1,42.7 166.1,32.6 154.7,11.9 161.7,11.9 170.3,27.8 170.5,27.8 179.1,11.9 
		183.5,11.9 172.3,32.6 	"/>
	<path class="st0" d="M196.7,11c7.7,0,11.7,5.9,11.7,5.9l-2,1.8c0,0-3.7-4.2-8.8-4.2c-3.5,0-5.7,2.2-5.7,4.8
		c0,5.7,16.9,4.6,16.9,14.7c0,4.8-4.6,9.5-12.5,9.5c-9,0-13-6.8-13-6.8l2-2c0,0,3.5,5.3,10.1,5.3c4.4,0,6.8-2.4,6.8-5.9
		c0-5.5-16.9-4.6-16.9-14.7C185.3,15.2,189.4,11,196.7,11"/>
	<path class="st0" d="M250.4,39.6c0,0-3.7,4-10.1,4c-9.5,0-16.7-7.3-16.7-16.3c0-9,7.3-16.3,16.7-16.3c8.6,0,12.8,6.4,12.8,6.4l-2,2
		c0,0-3.7-4.8-9.9-4.8c-5.9,0-11,5.1-11,12.8c0,7.7,5.1,12.8,11,12.8c4,0,6.6-2.4,6.6-2.4v-7.9h-7.3V26h13.4v16.7h-2.2l-1.1-3.1
		H250.4z"/>
	<path class="st0" d="M266.2,31.5v11.2H260V11.9h11.2c8.8,0,13.2,4.4,13.2,9.9c0,6.4-6.2,7.9-6.2,7.9v0.2l8.8,12.8h-6.8l-7.6-11.2
		H266.2z M271.2,28c4,0,6.6-2.6,6.6-6.2c0-3.5-2.6-6.2-6.6-6.2h-5.1V28H271.2z"/>
	<path class="st0" d="M306,11c9.5,0,16.7,7.3,16.7,16.3s-7.3,16.3-16.7,16.3c-9.5,0-16.7-7.3-16.7-16.3S296.5,11,306,11 M306,14.6
		c-5.3,0-10.1,4.8-10.1,12.8s4.8,12.8,10.1,12.8c5.3,0,10.1-4.8,10.1-12.8S311.3,14.6,306,14.6"/>
	<path class="st0" d="M349.3,31.3V11.9h4v19.4c0,7-5.3,12.3-13,12.3c-7.7,0-13-5.3-13-12.3V11.9h6.2v19.4c0,5.3,3.5,8.8,7.9,8.8
		C345.8,40.1,349.3,36.5,349.3,31.3"/>
	<path class="st0" d="M372,11.9c8.6,0,13,4.4,13,10.1c0,5.8-4.4,10.1-13,10.1H366v10.6h-6.2V11.9H372z M372,15.7H366v12.8h5.9
		c3.7,0,6.4-2.6,6.4-6.4C378.4,18.3,375.7,15.7,372,15.7"/>
</g>
</svg>
