<svg id="round-account-button-with-user-inside" xmlns="http://www.w3.org/2000/svg" width="20.298" height="20.298" viewBox="0 0 20.298 20.298">
  <g id="account-circle">
    <path id="Path_5" data-name="Path 5" d="M10.149,0A10.149,10.149,0,1,0,20.3,10.149,10.179,10.179,0,0,0,10.149,0Zm0,3.045a2.99,2.99,0,0,1,3.045,3.045,2.99,2.99,0,0,1-3.045,3.045A2.99,2.99,0,0,1,7.1,6.089,2.99,2.99,0,0,1,10.149,3.045Zm0,14.412A7.4,7.4,0,0,1,4.06,14.209c0-2.03,4.06-3.146,6.089-3.146s6.089,1.116,6.089,3.146A7.4,7.4,0,0,1,10.149,17.456Z"/>
  </g>
</svg>
