<svg xmlns="http://www.w3.org/2000/svg" width="20.348" height="20.298" viewBox="0 0 20.348 20.298">
  <path id="facebook" d="M344.083,91.6a10.174,10.174,0,1,1-10.144-10.164A10.165,10.165,0,0,1,344.083,91.6Zm-11.37-1.381a9.7,9.7,0,0,0-.991.01c-.159.017-.438.117-.446.2a5.386,5.386,0,0,0,0,1.543c.025.131.578.219.887.217.438-.006.559.159.544.567-.023.724-.017,1.45,0,2.174.031,1.735-.313,1.456,1.564,1.494.427.01.58-.173.574-.572-.008-.764,0-1.529,0-2.3,0-1.254,0-1.27,1.268-1.347.405-.023.519-.246.436-.544-.134-.48.43-1.179-.405-1.431a4.893,4.893,0,0,0-.843-.029.588.588,0,0,1-.409-.171.944.944,0,0,1,.8-1.414c1.06.021.941-.125.949-1.047,0-.121.046-.279-.013-.355-.134-.175-.305-.417-.488-.442a6.013,6.013,0,0,0-1.327,0,2.2,2.2,0,0,0-2.086,2.125C332.69,89.3,332.713,89.7,332.713,90.215Z" transform="translate(-323.735 -81.433)"/>
</svg>
