<?xml version="1.0" encoding="utf-8"?>
<!-- Generator: Adobe Illustrator 23.0.6, SVG Export Plug-In . SVG Version: 6.00 Build 0)  -->
<svg version="1.1" id="Warstwa_1" xmlns="http://www.w3.org/2000/svg" xmlns:xlink="http://www.w3.org/1999/xlink" x="0px" y="0px"
	 viewBox="0 0 10.4 10.4" style="enable-background:new 0 0 10.4 10.4;" xml:space="preserve">
<path id="garage" d="M8.9,10.4H7.8c-0.1,0-0.2-0.1-0.2-0.2V9.3H2.8v0.9c0,0.1-0.1,0.2-0.2,0.2H1.5c-0.1,0-0.2-0.1-0.2-0.2V9.3H0.6
	c-0.1,0-0.2-0.1-0.2-0.2V6.5c0-0.5,0.4-0.9,0.8-1V5C1.3,3.9,2.1,3,3.2,3h4C8.2,3,9.1,3.9,9.1,5v0.5C9.6,5.6,10,6,10,6.5v2.5
	c0,0.1-0.1,0.2-0.2,0.2H9.1v0.9C9.1,10.3,9,10.4,8.9,10.4C8.9,10.4,8.9,10.4,8.9,10.4z M8,10h0.7V9.3H8V10z M1.7,10h0.7V9.3H1.7
	L1.7,10z M8.9,8.9h0.6V6.5c0-0.4-0.3-0.7-0.6-0.7c0,0,0,0,0,0H1.5c-0.4,0-0.6,0.3-0.6,0.6v2.3H8.9z M7.8,5.5h0.9V5
	c0-0.8-0.7-1.5-1.5-1.5h-4C2.4,3.4,1.7,4.1,1.7,5v0.5h4.1C5.9,4.9,6.4,4.6,7,4.7C7.4,4.8,7.7,5.1,7.8,5.5z M6.2,5.5h1.2
	C7.3,5.2,6.9,5,6.6,5.1C6.4,5.2,6.3,5.3,6.2,5.5z M8.4,8.3C8,8.3,7.6,8,7.6,7.6c0-0.4,0.3-0.7,0.7-0.7c0.4,0,0.7,0.3,0.7,0.7
	c0,0,0,0,0,0C9.1,8,8.8,8.3,8.4,8.3z M8.4,7.3C8.2,7.3,8,7.4,8,7.6c0,0.2,0.2,0.3,0.3,0.3c0.2,0,0.3-0.2,0.3-0.3
	C8.7,7.4,8.6,7.3,8.4,7.3C8.4,7.3,8.4,7.3,8.4,7.3L8.4,7.3z M7.1,8.3H3.3c-0.1,0-0.2-0.1-0.2-0.2c0-0.1,0.1-0.2,0.2-0.2l0,0h3.8
	c0.1,0,0.2,0.1,0.2,0.2C7.3,8.3,7.2,8.3,7.1,8.3L7.1,8.3z M2,8.3C1.6,8.3,1.3,8,1.3,7.6c0-0.4,0.3-0.7,0.7-0.7
	c0.4,0,0.7,0.3,0.7,0.7C2.8,8,2.4,8.3,2,8.3z M2,7.3c-0.2,0-0.3,0.2-0.3,0.3c0,0.2,0.2,0.3,0.3,0.3s0.3-0.2,0.3-0.3
	C2.4,7.4,2.2,7.3,2,7.3C2,7.3,2,7.3,2,7.3L2,7.3z M7.1,7.3H3.3c-0.1,0-0.2-0.1-0.2-0.2c0-0.1,0.1-0.2,0.2-0.2l0,0h3.8
	c0.1,0,0.2,0.1,0.2,0.2C7.3,7.2,7.2,7.3,7.1,7.3L7.1,7.3z M10.2,2.5C10.2,2.5,10.1,2.5,10.2,2.5l-5-2.1L0.3,2.5
	c-0.1,0-0.2,0-0.3-0.1c0-0.1,0-0.2,0.1-0.3l0,0l5-2.1c0,0,0.1,0,0.1,0l0,0c0,0,0,0,0.1,0h0l5,2.1c0.1,0,0.2,0.2,0.1,0.3
	C10.4,2.5,10.3,2.5,10.2,2.5L10.2,2.5z"/>
</svg>
