<?xml version="1.0" encoding="utf-8"?>
<!-- Generator: Adobe Illustrator 23.0.6, SVG Export Plug-In . SVG Version: 6.00 Build 0)  -->
<svg version="1.1" id="Warstwa_1" xmlns="http://www.w3.org/2000/svg" xmlns:xlink="http://www.w3.org/1999/xlink" x="0px" y="0px"
	 viewBox="0 0 40.1 26.4" style="enable-background:new 0 0 40.1 26.4;" xml:space="preserve">
<g id="handshake" transform="translate(0 0)">
	<g id="Group_11" transform="translate(0 0)">
		<path id="Path_2" d="M40.1,6.8c0-0.6-0.2-1.2-0.6-1.7L36.4,1c-0.5-0.7-1.3-1-2.2-1c-0.5,0-1,0.1-1.4,0.4l-3.1,1.9
			c-0.4,0.2-0.9,0.4-1.4,0.3c-0.4,0-0.7-0.1-1.1-0.2l-3-1.5c-0.5-0.2-1-0.3-1.6-0.3c-0.8,0-1.6,0.2-2.2,0.6L20,1.5l-1.2-0.6
			c-0.6-0.3-1.3-0.4-2-0.4c-0.6,0-1.2,0.1-1.8,0.3l-2.1,0.9C12.5,1.9,12,2,11.5,2c-0.5,0-1-0.1-1.4-0.2L8,0.9
			C7.7,0.7,7.3,0.6,6.9,0.6C6.4,0.6,6,0.7,5.5,0.9C5.1,1.1,4.7,1.3,4.4,1.7L0.6,5.9c-0.9,1-0.8,2.6,0.2,3.5c0,0,0,0,0.1,0l3.5,3
			l-1.7,1.7c-0.9,1-0.9,2.6,0.1,3.5c0,0,0,0,0,0L3.1,18c0.3,0.3,0.7,0.5,1.1,0.6c-0.5,1-0.4,2.2,0.5,3l0,0L5,21.9
			c0.7,0.7,1.8,0.9,2.7,0.5c0.1,0.5,0.4,0.9,0.7,1.2l0.3,0.3c0.8,0.8,2.1,0.9,3.1,0.3c0.1,0.4,0.3,0.8,0.6,1.1l0.3,0.3
			c1,0.9,2.6,0.9,3.5-0.1l1.5-1.5l2,1.9c1,0.9,2.6,0.9,3.5-0.1l0.3-0.3c0.3-0.3,0.5-0.6,0.6-1l0.8,0.7c1,0.9,2.6,0.9,3.5-0.1
			l0.3-0.3c0.4-0.4,0.6-0.9,0.6-1.4c0.9,0.2,1.8,0,2.5-0.7l0.3-0.3c0.4-0.5,0.7-1.1,0.7-1.7c0-0.2,0-0.4-0.1-0.6
			c0.6-0.1,1.1-0.3,1.5-0.8l0.3-0.3c0.9-1,0.9-2.6-0.1-3.5c0,0,0,0,0,0L34,14.7l5.4-6C39.9,8.2,40.1,7.5,40.1,6.8z M4.9,17.3
			c-0.3,0-0.6-0.1-0.8-0.3l-0.3-0.3c-0.5-0.4-0.5-1.1,0-1.6c0,0,0,0,0,0l3.4-3.6c0.4-0.4,1.2-0.5,1.6,0l0.3,0.3
			c0.2,0.2,0.3,0.5,0.4,0.8c0,0.2-0.1,0.5-0.2,0.6l-3.7,3.8C5.3,17.2,5.1,17.3,4.9,17.3z M7.6,20.9c-0.4,0.4-1.1,0.5-1.6,0l-0.3-0.3
			l0,0c-0.5-0.4-0.5-1.1,0-1.6c0,0,4.6-4.7,4.6-4.8c0.4-0.4,1.1-0.4,1.6,0l0.3,0.3c0.5,0.4,0.5,1.1,0,1.6L7.6,20.9z M11.3,22.9
			c-0.4,0.4-1.2,0.5-1.6,0l-0.3-0.3c-0.4-0.4-0.5-1.1-0.1-1.5l3.2-3.3c0.4-0.4,1.1-0.4,1.5,0l0.3,0.3c0.5,0.4,0.5,1.1,0,1.6
			L11.3,22.9z M17.3,22.5l-1.9,2c-0.4,0.4-1.2,0.5-1.6,0l-0.3-0.3c-0.5-0.4-0.5-1.1,0-1.6l1.9-2c0.4-0.4,1.2-0.5,1.6,0l0.3,0.3
			C17.8,21.3,17.8,22.1,17.3,22.5z M34,17.1c0,0.3-0.1,0.6-0.3,0.8l-0.3,0.3c-0.4,0.5-1.1,0.5-1.6,0.1l-5.4-5l-0.9,1l5.7,5.3
			c0.5,0.4,0.5,1.1,0.1,1.6c0,0,0,0,0,0L31,21.5c-0.4,0.5-1.1,0.5-1.6,0.1l-5.4-5l-0.9,1l4.8,4.4c0.4,0.4,0.5,1.1,0,1.6L27.6,24
			c-0.4,0.5-1.1,0.5-1.6,0.1l-4.8-4.4l0,0l-0.9,1l0,0l0,0l2.4,2.2c0.4,0.4,0.4,1.1,0,1.5l-0.3,0.3c-0.4,0.5-1.1,0.5-1.6,0.1
			l-2.1-1.9c0.5-1,0.3-2.2-0.5-2.9l-0.3-0.3c-0.5-0.4-1.1-0.7-1.7-0.7c0,0-0.1,0-0.1,0c0,0,0,0,0,0c-0.1-0.6-0.4-1.3-0.8-1.8
			l-0.3-0.3c-0.3-0.3-0.8-0.6-1.3-0.6c0.3-0.9,0.1-2-0.6-2.6l-0.3-0.3c-0.5-0.4-1.1-0.7-1.7-0.7c-0.1,0-0.1,0-0.2,0
			c0-0.7-0.3-1.3-0.8-1.7l0,0l-0.3-0.3c-1-0.9-2.6-0.9-3.5,0.1l-0.8,0.8l-3.6-3C1.3,8,1.2,7.3,1.6,6.8c0,0,0,0,0,0l3.8-4.2
			C5.6,2.4,5.8,2.3,6,2.2C6.3,2.1,6.6,2,6.9,2c0.2,0,0.4,0,0.6,0.1L9.6,3c0.6,0.2,1.3,0.4,1.9,0.3c0.7,0,1.3-0.1,1.9-0.3l2.1-0.9
			c0.4-0.2,0.8-0.2,1.3-0.2c0.5,0,0.9,0.1,1.4,0.3l0.6,0.3l-2.1,1.5c-1.1,0.8-1.4,2.3-0.6,3.4c0,0,0,0,0,0.1l0,0l0.3,0.4
			c0.5,0.7,1.3,1.1,2.2,1.1c0.5,0,1-0.1,1.4-0.4l1.3-0.8c0.3-0.2,0.7-0.3,1-0.3c0.4,0,0.9,0.1,1.2,0.3l3.5,2.5
			c1,0.7,1.9,1.4,2.7,2.2l4,3.7C33.9,16.5,34,16.8,34,17.1L34,17.1z M38.4,7.8L33,13.8l-2.4-2.3c-0.9-0.8-1.9-1.6-2.9-2.3l-3.5-2.5
			c-0.6-0.4-1.3-0.6-2-0.6c-0.6,0-1.2,0.1-1.8,0.4l-1.3,0.8c-0.2,0.1-0.4,0.2-0.7,0.2c-0.4,0-0.8-0.2-1.1-0.5l-0.3-0.4l0,0
			c-0.4-0.5-0.3-1.2,0.2-1.5c0,0,0,0,0,0l3.7-2.6C21.6,2.1,22.1,2,22.6,2c0.3,0,0.7,0.1,1,0.2l3,1.5C27.1,3.9,27.7,4,28.3,4
			c0.8,0,1.5-0.2,2.1-0.6l3.1-1.9c0.2-0.1,0.4-0.2,0.7-0.2c0.4,0,0.8,0.2,1.1,0.5l3.2,4.1c0.2,0.3,0.3,0.6,0.3,0.9
			C38.8,7.2,38.6,7.5,38.4,7.8z"/>
	</g>
</g>
</svg>
