<svg xmlns="http://www.w3.org/2000/svg" width="20.346" height="20.298" viewBox="0 0 20.346 20.298">
  <path id="linkedin" d="M371.32,91.573a10.173,10.173,0,1,1-10.167-10.14A10.164,10.164,0,0,1,371.32,91.573Zm-9.564-1.126c.163-.605-.3-.553-.722-.547-.261,0-.524.019-.786,0-.457-.038-.586.165-.58.6.021,1.466.008,2.933,0,4.4,0,1.581-.006,1.566,1.575,1.521.415-.01.505-.173.5-.544-.019-1-.012-2.009,0-3.016.006-.849.413-1.36,1.093-1.4.617-.031,1,.38,1.064,1.275.056.72.031,1.446.033,2.169,0,1.673.027,1.7,1.7,1.487a.5.5,0,0,0,.34-.346c.017-1.327.067-2.659-.029-3.978a2.232,2.232,0,0,0-2.6-2.284A6.5,6.5,0,0,0,361.756,90.448Zm-3.244,2.722V91.3c0-1.414,0-1.393-1.391-1.41-.521-.006-.709.138-.7.68.033,1.446.012,2.893.012,4.341,0,1.537,0,1.518,1.523,1.516.478,0,.574-.179.561-.605C358.494,94.939,358.512,94.055,358.512,93.17Zm-1.049-4.2a1.07,1.07,0,0,0,1.147-1.11,1.089,1.089,0,0,0-1.106-1.1,1.125,1.125,0,0,0-1.187,1.093A1.093,1.093,0,0,0,357.463,88.975Z" transform="translate(-350.974 -81.433)"/>
</svg>
