<svg xmlns="http://www.w3.org/2000/svg" width="20.348" height="20.298" viewBox="0 0 20.348 20.298">
  <path id="pinterest" d="M374.745,101.731a10.149,10.149,0,1,1,10.2-10.112A10.166,10.166,0,0,1,374.745,101.731Zm-1.222-5.611c1.11.7,3.506.108,4.745-1.262a4.728,4.728,0,0,0,.528-5.943,4.849,4.849,0,0,0-8.844,3.248c.2,1.677,1.585,3.5,2.893,3.671q.262-2.011.523-4.028a4.159,4.159,0,0,1,.086-.713c.173-.557.611-.864,1.022-.7.536.209.5.659.39,1.118a11.37,11.37,0,0,0-.317,1.345.634.634,0,0,0,.745.782,1.892,1.892,0,0,0,1-.465,2.747,2.747,0,0,0,.353-2.835,2.262,2.262,0,0,0-2.949-.849,2.206,2.206,0,0,0-1.085,2.858,4.369,4.369,0,0,1,.156,1.012l-.236.092a3.691,3.691,0,0,1-.546-.5,2.6,2.6,0,0,1-.348-2.415,3.318,3.318,0,0,1,3.988-2.1,2.986,2.986,0,0,1,2.359,3.632,2.7,2.7,0,0,1-2.417,2.4,6.425,6.425,0,0,1-1.393-.248Z" transform="translate(-364.593 -81.433)"/>
</svg>
